# xmcd
#
# Track frame offsets: 
#        150
#        13205
#        27631
#        37401
#        49967
#        63157
#        75635
#        93504
#        108783
#        123147
#        137761
#        155063
#
# Disc length: 2271 seconds
#
# Revision: 1
# Processed by: cddbd v1.5.2PL0 Copyright (c) Steve Scherf et al.
# Submitted via: ExactAudioCopy v1.0b1
#
DISCID=a308dd0c
DTITLE=Kasprowicz Robert - Moja Twierdza
DYEAR=1900
DGENRE=Gospel
TTITLE0=Bo co dzien
TTITLE1=Tak wielki jestes Ty
TTITLE2=Tys opoka moja
TTITLE3=Codziennie rano
TTITLE4=Kto poznal mnie
TTITLE5=Panie postaw straz
TTITLE6=Kiedy trudno Ci zyc
TTITLE7=Szczesciem mym jestes Ty
TTITLE8=Wiem kim jestes Panie
TTITLE9=Jeszcze nigdy Panie
TTITLE10=Czemu nie wierzysz?
TTITLE11=Panie, uslysz me wolanie
EXTD=
EXTT0=
EXTT1=
EXTT2=
EXTT3=
EXTT4=
EXTT5=
EXTT6=
EXTT7=
EXTT8=
EXTT9=
EXTT10=
EXTT11=
PLAYORDER=
